<svg xmlns="http://www.w3.org/2000/svg" version="1.1" xmlns:xlink="http://www.w3.org/1999/xlink" xmlns:svgjs="http://svgjs.dev/svgjs" width="1000" height="623" viewBox="0 0 1000 623"><g transform="matrix(1,0,0,1,-0.6060606060606233,0.2522267206477409)"><svg viewBox="0 0 396 247" data-background-color="#ffffff" preserveAspectRatio="xMidYMid meet" height="623" width="1000" xmlns="http://www.w3.org/2000/svg" xmlns:xlink="http://www.w3.org/1999/xlink"><g id="tight-bounds" transform="matrix(1,0,0,1,0.2400000000000091,-0.09999999999999432)"><svg viewBox="0 0 395.52 247.2" height="247.2" width="395.52"><g><svg></svg></g><g><svg viewBox="0 0 395.52 247.2" height="247.2" width="395.52"><g transform="matrix(1,0,0,1,0,97.97942723553477)"><svg viewBox="0 0 395.52 51.24114552893044" height="51.24114552893044" width="395.52"><g><svg viewBox="0 0 395.52 51.24114552893044" height="51.24114552893044" width="395.52"><g><svg viewBox="0 0 395.52 51.24114552893044" height="51.24114552893044" width="395.52"><g><svg viewBox="0 0 395.52 51.24114552893044" height="51.24114552893044" width="395.52"><g><svg viewBox="0 0 395.52 51.24114552893044" height="51.24114552893044" width="395.52"><g><svg viewBox="0 0 395.52 51.24114552893044" height="51.24114552893044" width="395.52"><g transform="matrix(1,0,0,1,0,0)"><svg width="395.52" viewBox="2.5999999046325684 -33 256.6300048828125 33.25" height="51.24114552893044" data-palette-color="#bb84e8"><path d="M17.95 0L2.6 0 2.6-0.8 6.8-2.85 6.8-30.15 2.6-32.2 2.6-33 18.15-33Q24.05-33 27.63-30.88 31.2-28.75 31.2-24.1L31.2-24.1Q31.2-21.3 29.33-19.18 27.45-17.05 24.23-15.85 21-14.65 16.95-14.65L16.95-14.65 13.05-14.65 13.05-2.85 17.95-0.8 17.95 0ZM15.9-30.25L13.05-30.25 13.05-17.2 16.25-17.2Q20.2-17.2 22.45-19.03 24.7-20.85 24.7-23.65L24.7-23.65Q24.7-27.15 22.43-28.7 20.15-30.25 15.9-30.25L15.9-30.25ZM48.8 0L35.85 0 35.85-0.8 39.55-2.45 39.55-25.55 35.85-27.2 35.85-28 49.45-28Q54.05-28 56.7-26.15 59.35-24.3 59.35-21.1L59.35-21.1Q59.35-16.4 53.65-14.35L53.65-14.35 61.4-2.35 64.65-0.8 64.65 0 55.65 0 48.05-12.75 45.55-12.75 45.55-2.5 48.8-0.8 48.8 0ZM47.45-25.6L47.45-25.6 45.55-25.6 45.55-15.15 47.65-15.15Q50.35-15.15 51.75-16.57 53.15-18 53.15-20.45L53.15-20.45Q53.15-25.6 47.45-25.6ZM80 0L67.14 0 67.14-0.8 70.44-2.45 70.44-25.55 67.14-27.2 67.14-28 80-28 80-27.2 76.5-25.55 76.5-2.45 80-0.8 80 0ZM100.89 0.25L98.19 0.25 87.04-25.7 84.09-27.2 84.09-28 96.99-28 96.99-27.2 93.54-25.7 101.14-7.6 101.44-7.6 109.04-25.7 105.44-27.2 105.44-28 114.74-28 114.74-27.2 112.19-25.8 100.89 0.25ZM126.59 0L117.29 0 117.29-0.8 119.79-2.15 130.94-28.25 134.34-28.25 145.29-2.35 148.34-0.8 148.34 0 135.59 0 135.59-0.8 139.09-2.3 136.14-9.4 125.94-9.4 122.99-2.25 126.59-0.8 126.59 0ZM131.04-21.7L126.99-11.95 135.09-11.95 131.04-21.7ZM167.89 0L152.14 0 152.14-0.8 156.34-2.85 156.34-30.15 152.14-32.2 152.14-33 168.24-33Q173.99-33 178.01-31.05 182.04-29.1 184.16-25.7 186.29-22.3 186.29-18L186.29-18Q186.29-14.1 184.91-10.8 183.54-7.5 181.06-5.1 178.59-2.7 175.21-1.35 171.84 0 167.89 0L167.89 0ZM166.54-30.25L166.54-30.25 162.59-30.25 162.59-2.75 167.29-2.75Q171.24-2.75 174.01-4.42 176.79-6.1 178.26-9.18 179.74-12.25 179.74-16.45L179.74-16.45Q179.74-22.75 176.36-26.5 172.99-30.25 166.54-30.25ZM219.24 0L191.69 0 191.69-0.8 195.89-2.85 195.89-30.15 191.69-32.2 191.69-33 217.84-33 217.84-24.35 217.04-24.35 213.59-30.25 202.14-30.25 202.14-18.4 210.19-18.4 212.89-22.65 213.69-22.65 213.69-11.5 212.89-11.5 210.19-15.65 202.14-15.65 202.14-2.75 214.84-2.75 218.44-9.75 219.24-9.75 219.24 0ZM235.73 0L224.03 0 224.03-0.8 227.88-2.75 238.33-15.9 227.93-30.4 224.68-32.2 224.68-33 239.53-33 239.53-32.2 235.58-30.3 235.58-30.05 242.83-20.2 250.68-30.05 250.68-30.25 246.83-32.2 246.83-33 258.03-33 258.03-32.2 254.83-30.45 244.63-17.8 255.68-2.8 259.23-0.8 259.23 0 244.13 0 244.13-0.8 247.73-2.65 247.73-2.85 240.03-13.5 231.73-2.9 231.68-2.7 235.73-0.8 235.73 0Z" opacity="1" transform="matrix(1,0,0,1,0,0)" fill="#bb84e8" class="undefined-text-0" data-fill-palette-color="primary" id="text-0"></path></svg></g></svg></g></svg></g></svg></g><g></g></svg></g></svg></g></svg></g><g mask="url(#6ba26273-3232-4ce3-bfe7-c245070423a3)"><g transform="matrix(3.1844155844155844, 0, 0, 3.1844155844155844, 58.60104867910408, 1)"><svg xmlns="http://www.w3.org/2000/svg" xmlns:xlink="http://www.w3.org/1999/xlink" version="1.1" x="0" y="0" viewBox="6.300000190734863 11.5 87.39999389648438 77" style="enable-background:new 0 0 100 100;" xml:space="preserve" height="77" width="87.39999389648438" class="icon-none" data-fill-palette-color="accent" id="none"><path d="M72.3 12.3L72.3 12.3 72.3 12.3l-0.4-0.8H28.2L6.3 50l21.8 38.5h43.7L93.7 50 72.3 12.3zM33.3 25.3L9.9 47.7l18.6-32.8L33.3 25.3zM70.7 14.8l6.4 35.7L36.9 25.8 70.7 14.8zM35.5 27.3l41 25.2-41 23.3V27.3zM77 54.5l-7.2 30.8-32.6-8.1L77 54.5zM33.5 75L9.9 50.5l23.6-22.7V75zM33.2 77.6l-4.6 7.7L11.5 55.1 33.2 77.6zM35 78.6l31.4 7.9H30.2L35 78.6zM79.3 53.3l11.6-2.5L72.1 84 79.3 53.3zM90.7 48.9l-11.4 2.5-5.9-33.1L90.7 48.9zM35 24.3l-5-10.8h38.2L35 24.3z" fill="#471aa0" data-fill-palette-color="accent"></path></svg></g></g></svg></g><defs><mask id="6f58d4f2-dab0-4644-8eb7-fca00ff7664d"><rect width="640" height="400" fill="white"></rect><rect width="435.072" height="66.19577136925773" fill="black" y="166.90211431537114" x="102.464" id="transform-me" transform="matrix(1,0,0,1,-122.24000000000001,-76.4)"></rect></mask><mask id="cfb93ba2-b2e3-4954-874b-5906cf828df0"><rect width="640" height="400" fill="white"></rect><rect width="435.072" height="66.19577136925773" fill="black" y="166.90211431537114" x="102.464" id="transform-me" transform="matrix(1,0,0,1,-122.24000000000001,-76.4)"></rect></mask><mask id="15b90083-955b-4419-9fc0-f1241024e751"><rect width="640" height="400" fill="white"></rect><rect width="435.072" height="66.19577136925773" fill="black" y="166.90211431537114" x="102.464" id="transform-me" transform="matrix(1,0,0,1,-122.24000000000001,-76.4)"></rect></mask><mask id="a6f06fc5-cd73-47fc-9a91-be2a4b696bf0"><rect width="640" height="400" fill="white"></rect><rect width="174.02880000000002" height="26.478308547703094" fill="black" y="186.76084572614846" x="232.98559999999998" id="transform-me" transform="matrix(1,0,0,1,-122.24000000000001,-76.4)"></rect></mask><mask id="8f45c9b2-80d0-416c-b838-d7765df057e9"><rect width="640" height="400" fill="white"></rect><rect width="232.0384" height="35.304411396937454" fill="black" y="182.34779430153128" x="203.9808" id="transform-me" transform="matrix(1,0,0,1,-122.24000000000001,-76.4)"></rect></mask><mask id="a7ac5dd6-f5c0-4eee-a810-ce6a2d29542e"><rect width="640" height="400" fill="white"></rect><rect width="348.05760000000004" height="52.95661709540619" fill="black" y="173.52169145229692" x="145.97119999999998" id="transform-me" transform="matrix(1,0,0,1,-122.24000000000001,-76.4)"></rect></mask><mask id="7fab0727-c869-4fd8-beaf-fb1d61bf4834"><rect width="640" height="400" fill="white"></rect><rect width="435.072" height="66.19577136925773" fill="black" y="166.90211431537114" x="102.464" id="transform-me" transform="matrix(1,0,0,1,-122.24000000000001,-76.4)"></rect></mask><mask id="0b383bb6-c734-44a9-9f7c-c8328e7182f4"><rect width="640" height="400" fill="white"></rect><rect width="435.072" height="66.19577136925773" fill="black" y="166.90211431537114" x="102.464" id="transform-me" transform="matrix(1,0,0,1,-122.24000000000001,-76.4)"></rect></mask><mask id="8b278bc8-94b2-4821-bdfe-d145af660843"><rect width="640" height="400" fill="white"></rect><rect width="435.072" height="66.19577136925773" fill="black" y="166.90211431537114" x="102.464" id="transform-me" transform="matrix(1,0,0,1,-122.24000000000001,-76.4)"></rect></mask><mask id="05f73b26-1752-4795-8170-9b940039890f"><rect width="640" height="400" fill="white"></rect><rect width="435.072" height="66.19577136925773" fill="black" y="166.90211431537114" x="102.464" id="transform-me" transform="matrix(1,0,0,1,-122.24000000000001,-76.4)"></rect></mask><mask id="6d6a388d-c95c-4a80-ba6f-7883182fbbc1"><rect width="640" height="400" fill="white"></rect><rect width="435.072" height="66.19577136925773" fill="black" y="166.90211431537114" x="102.464" id="transform-me" transform="matrix(1,0,0,1,-122.24000000000001,-76.4)"></rect></mask><mask id="684f0412-220e-48cf-8ae0-b3d92ee37325"><rect width="640" height="400" fill="white"></rect><rect width="435.072" height="66.19577136925773" fill="black" y="166.90211431537114" x="102.464" id="transform-me" transform="matrix(1,0,0,1,-122.24000000000001,-76.4)"></rect></mask><mask id="6ba26273-3232-4ce3-bfe7-c245070423a3"><rect width="640" height="400" fill="white"></rect><rect width="435.072" height="66.19577136925773" fill="black" y="166.90211431537114" x="102.464" id="transform-me" transform="matrix(1,0,0,1,-122.24000000000001,-76.4)"></rect></mask></defs></svg><rect width="395.52" height="247.2" fill="none" stroke="none" visibility="hidden"></rect></g></svg></g></svg>